#!OML:ASF E:\Style4\Style4.ASF
:FULLY-SPECIFIED
:DEGREES
2154
root 0.0972768 16.7882 0.67708 -8.84959 5.35886 3.40021
lowerback 7.51528 2.95256 -0.449249
upperback 6.21194 3.90835 1.36725
thorax 2.09221 1.92665 1.44106
lowerneck 1.14078 -3.47073 -5.84332
upperneck 7.30296 -4.73835 2.78475
head 2.35291 -2.44429 1.81511
rclavicle 2.39536e-014 1.82882e-014
rhumerus -11.0086 10.6818 -86.7886
rradius 129.406
rwrist 24.6054
rhand 43.629 -6.31346
rfingers 7.12502
rthumb 65.3264 -12.9374
lclavicle 2.39536e-014 1.82882e-014
lhumerus -11.3454 -13.8257 89.8578
lradius 131.817
lwrist -15.8915
lhand 26.3802 45.0794
lfingers 7.12502
lthumb 50.4253 66.076
rfemur -5.01724 -4.26047 14.3516
rtibia 48.9603
rfoot -30.7196 -20.9122
rtoes -14.8276
lfemur -6.07045 -2.2945 -22.6817
ltibia 46.6919
lfoot -30.1445 8.4011
ltoes -16.2107
2155
root 0.098844 16.8161 0.684908 -8.63221 5.23954 3.52277
lowerback 7.50933 2.97409 -0.545773
upperback 5.95176 3.93299 1.26228
thorax 1.8245 1.93967 1.37582
lowerneck 1.01753 -3.44025 -5.78816
upperneck 7.54185 -4.69574 2.81741
head 2.45182 -2.42215 1.81467
rclavicle 1.95803e-014 4.77083e-015
rhumerus -11.1551 10.5565 -86.8224
rradius 129.514
rwrist 24.1474
rhand 43.4969 -6.24092
rfingers 7.12502
rthumb 65.2228 -13.0425
lclavicle 1.95803e-014 4.77083e-015
lhumerus -11.7618 -13.7116 89.6733
lradius 131.847
lwrist -16.0241
lhand 26.069 44.8818
lfingers 7.12502
lthumb 50.1408 66.0303
rfemur -5.03666 -4.15864 14.2419
rtibia 48.5243
rfoot -30.5445 -20.8493
rtoes -14.5816
lfemur -5.99431 -2.16783 -22.7737
ltibia 46.1729
lfoot -29.9715 8.31696
ltoes -15.8528
2156
root 0.101988 16.8466 0.692383 -8.42491 5.12298 3.57378
lowerback 7.30693 3.00696 -0.555977
upperback 5.84048 3.97718 1.19898
thorax 1.82264 1.96264 1.32113
lowerneck 0.823035 -3.42413 -5.72967
upperneck 7.68275 -4.66535 2.81099
head 2.53042 -2.4055 1.79977
rclavicle 3.13086e-014 3.18055e-015
rhumerus -11.0675 10.5393 -86.7689
rradius 129.519
rwrist 24.3615
rhand 42.638 -5.83247
rfingers 7.12502
rthumb 64.5425 -13.753
lclavicle 3.13086e-014 3.18055e-015
lhumerus -11.8242 -13.6058 89.4851
lradius 131.931
lwrist -16.127
lhand 25.7459 44.8864
lfingers 7.12502
lthumb 49.8451 66.1901
rfemur -5.01482 -4.09472 14.1875
rtibia 48.0736
rfoot -30.4277 -20.67
rtoes -14.3411
lfemur -5.90703 -2.06708 -22.807
ltibia 45.6463
lfoot -29.7541 8.36496
ltoes -15.8482
2157
root 0.107137 16.8766 0.696162 -8.18509 5.02386 3.61424
lowerback 7.22622 3.03331 -0.567387
upperback 5.62726 4.01213 1.15543
thorax 1.64669 1.98174 1.27722
lowerneck 0.653852 -3.40524 -5.69528
upperneck 7.90205 -4.63062 2.76772
head 2.63042 -2.38902 1.77742
rclavicle -7.15625e-015 5.56597e-015
rhumerus -11.0588 10.6082 -86.7405
rradius 129.557
rwrist 24.6287
rhand 41.7504 -5.60661
rfingers 7.12502
rthumb 63.8294 -14.6194
lclavicle -7.15625e-015 5.56597e-015
lhumerus -11.9597 -13.4595 89.3336
lradius 132.096
lwrist -15.9892
lhand 25.4937 44.9595
lfingers 7.12502
lthumb 49.6141 66.3825
rfemur -5.04998 -4.09574 14.1213
rtibia 47.6144
rfoot -30.2405 -20.5404
rtoes -14.3747
lfemur -5.87846 -2.03404 -22.8579
ltibia 45.1428
lfoot -29.5462 8.41701
ltoes -15.7559
2158
root 0.110926 16.9049 0.697756 -7.91983 4.93124 3.64613
lowerback 7.03402 3.05993 -0.620437
upperback 5.47501 4.04545 1.15518
thorax 1.59001 1.99734 1.30972
lowerneck 0.435915 -3.3954 -5.8274
upperneck 8.09254 -4.61085 2.85338
head 2.74112 -2.38105 1.82667
rclavicle 3.15074e-014 -7.95139e-016
rhumerus -10.8828 10.6875 -86.6186
rradius 129.683
rwrist 24.5879
rhand 40.9687 -5.70554
rfingers 7.12502
rthumb 63.1931 -15.6301
lclavicle 3.15074e-014 -7.95139e-016
lhumerus -11.9086 -13.2101 89.1928
lradius 132.206
lwrist -15.7617
lhand 25.2312 44.8585
lfingers 7.12502
lthumb 49.3733 66.4041
rfemur -5.13941 -4.05591 14.0952
rtibia 47.1699
rfoot -30.0451 -20.4722
rtoes -14.3712
lfemur -5.92426 -1.98519 -22.8775
ltibia 44.669
lfoot -29.4113 8.45894
ltoes -15.9833
2159
root 0.11334 16.9297 0.700323 -7.69871 4.80773 3.56745
lowerback 6.77239 3.10027 -0.483043
upperback 5.38433 4.10678 1.1347
thorax 1.64945 2.03188 1.2209
lowerneck 0.235746 -3.40601 -5.85663
upperneck 8.2349 -4.61789 2.89701
head 2.82906 -2.3841 1.84332
rclavicle 1.90833e-014 -2.14687e-014
rhumerus -10.7256 10.6534 -86.5799
rradius 129.883
rwrist 24.6031
rhand 40.1349 -5.64715
rfingers 7.12502
rthumb 62.5069 -16.4953
lclavicle 1.90833e-014 -2.14687e-014
lhumerus -11.6739 -13.0272 88.9352
lradius 132.296
lwrist -15.5681
lhand 24.9799 44.4968
lfingers 7.12502
lthumb 49.1427 66.1584
rfemur -5.18514 -3.96306 14.2055
rtibia 46.7277
rfoot -29.9691 -20.2617
rtoes -13.911
lfemur -5.94208 -1.90526 -22.7565
ltibia 44.2377
lfoot -29.317 8.4387
ltoes -16.0364
2160
root 0.117314 16.9536 0.703082 -7.51729 4.67705 3.56476
lowerback 6.65532 3.13443 -0.45314
upperback 5.22155 4.15417 1.10457
thorax 1.5483 2.0575 1.17147
lowerneck 0.137599 -3.38788 -5.83937
upperneck 8.4515 -4.58927 2.87789
head 2.91808 -2.37097 1.83318
rclavicle 6.94752e-014 -1.35174e-014
rhumerus -10.6662 10.6124 -86.5279
rradius 130.08
rwrist 24.5701
rhand 39.2768 -5.41285
rfingers 7.12502
rthumb 61.793 -17.1621
lclavicle 6.94752e-014 -1.35174e-014
lhumerus -11.5032 -12.8058 88.6904
lradius 132.424
lwrist -15.4252
lhand 24.562 44.1475
lfingers 7.12502
lthumb 48.7587 65.9984
rfemur -5.17222 -3.90088 14.1983
rtibia 46.2925
rfoot -29.8978 -19.9433
rtoes -13.1331
lfemur -5.90986 -1.84823 -22.7442
ltibia 43.8305
lfoot -29.065 8.39275
ltoes -15.683
2161
root 0.121372 16.98 0.706304 -7.30475 4.56573 3.48708
lowerback 5.43172 3.20086 -0.451181
upperback 5.74043 4.24285 1.2631
thorax 2.75194 2.09087 1.4245
lowerneck 0.0341419 -3.43769 -6.04846
upperneck 7.92897 -4.64249 2.91422
head 2.77131 -2.39771 1.88035
rclavicle 5.63555e-014 -7.95139e-016
rhumerus -9.44405 10.5369 -85.8796
rradius 130.075
rwrist 24.6788
rhand 38.2354 -5.08241
rfingers 7.12502
rthumb 60.917 -17.8626
lclavicle 5.63555e-014 -7.95139e-016
lhumerus -10.2513 -12.5521 88.6049
lradius 132.422
lwrist -15.4734
lhand 24.0276 43.6317
lfingers 7.12502
lthumb 48.2669 65.719
rfemur -5.19186 -3.89118 14.2787
rtibia 45.8455
rfoot -29.675 -19.8567
rtoes -13.0269
lfemur -5.95893 -1.75633 -22.6364
ltibia 43.47
lfoot -28.8191 8.33748
ltoes -15.416
2162
root 0.121876 17.0048 0.70897 -7.13416 4.4688 3.34441
lowerback 5.5548 3.17871 -0.375097
upperback 5.41635 4.21556 1.28377
thorax 2.35072 2.08227 1.38351
lowerneck 0.0260991 -3.37489 -6.02348
upperneck 8.22299 -4.55875 2.87799
head 2.86598 -2.35891 1.86591
rclavicle -1.49089e-014 1.82882e-014
rhumerus -9.33091 10.5672 -85.7654
rradius 130.129
rwrist 24.5585
rhand 37.4799 -4.66327
rfingers 7.12502
rthumb 60.2753 -18.1513
lclavicle -1.49089e-014 1.82882e-014
lhumerus -10.2993 -12.2477 88.4119
lradius 132.536
lwrist -15.6637
lhand 23.6065 42.9171
lfingers 7.12502
lthumb 47.8788 65.1863
rfemur -5.18454 -3.85165 14.458
rtibia 45.4158
rfoot -29.4738 -19.7923
rtoes -13.0216
lfemur -6.00954 -1.56997 -22.4267
ltibia 43.1686
lfoot -28.6026 8.48316
ltoes -16.2869
2163
root 0.12289 17.0235 0.708743 -6.98385 4.36803 3.17398
lowerback 5.55038 3.17866 -0.21217
upperback 5.23544 4.22121 1.29365
thorax 2.17586 2.09096 1.29609
lowerneck -0.135808 -3.34121 -5.95724
upperneck 8.47204 -4.50515 2.83368
head 2.97419 -2.33263 1.83861
rclavicle -2.08724e-014 1.11319e-014
rhumerus -8.98438 10.4619 -85.6292
rradius 130.217
rwrist 24.1388
rhand 36.7983 -4.87222
rfingers 7.12502
rthumb 59.6923 -18.9715
lclavicle -2.08724e-014 1.11319e-014
lhumerus -10.0474 -12.0772 88.1132
lradius 132.631
lwrist -15.7241
lhand 23.4282 42.495
lfingers 7.12502
lthumb 47.7142 64.8401
rfemur -5.22359 -3.80305 14.6671
rtibia 45.052
rfoot -29.1946 -19.9023
rtoes -13.5955
lfemur -6.07812 -1.4337 -22.2009
ltibia 42.952
lfoot -28.4365 8.53626
ltoes -16.7295
